<svg xmlns="http://www.w3.org/2000/svg" viewBox="0 0 310.41 58.96"><defs><style>.cls-1{fill:#fff;}</style></defs><g id="Layer_2" data-name="Layer 2"><g id="New"><path class="cls-1" d="M285.85,45.42h-9.3V35.93L289.46,0h-12.3L263.83,37.06l-4.1-11.37L269,0H256.65l-3.07,8.59L250.5,0H238.2l9.23,25.69-4.1,11.37L230,0H217.7l4.39,12.22a30.08,30.08,0,0,0-2.48-3.54Q212.64,0,202.73,0T185.78,8.68a30.75,30.75,0,0,0-6.6,15.46,30.57,30.57,0,0,0-6.66-15.46Q165.55,0,155.64,0h-20.5V56.87L114.7,0h-8.88L89.48,45.48h-4.1V0H74.44V22.74H58L54.19,33.6V.23H14.58q-6,0-10.31,5.26A19.52,19.52,0,0,0,0,18.2,19.5,19.5,0,0,0,4.27,30.9q4.28,5.26,10.31,5.26H29.5a3.32,3.32,0,0,1,2.65,1.34,5.46,5.46,0,0,1,0,6.52,3.32,3.32,0,0,1-2.65,1.34H0V58.73H29.5q6,0,10.31-5.26a18.76,18.76,0,0,0,3.53-6.93V58.73H54.19V36.22H74.44V59H96.93L110.26,21.9l8.47,23.58H103.08L107.87,59h47.77q9.92,0,16.88-8.59a31,31,0,0,0,6.66-15.55,31.17,31.17,0,0,0,6.6,15.55q7,8.58,16.95,8.59t16.88-8.59a32.14,32.14,0,0,0,7-20.89,38.32,38.32,0,0,0-.42-5.75L238.88,59h8.89l5.81-16.17L259.39,59h8.88L272,48.52V58.89h4.52v-9.2h9.3v9.2h4.5v-23h-4.5ZM43.34,35a18.68,18.68,0,0,0-3.53-6.93Q35.53,22.8,29.5,22.79H14.58a3.28,3.28,0,0,1-2.64-1.33,5,5,0,0,1-1.09-3.26,5,5,0,0,1,1.09-3.26,3.29,3.29,0,0,1,2.64-1.34H43.34ZM164.8,40.85a11.41,11.41,0,0,1-9.16,4.63h-9.57v-32h9.57q5.33,0,9.16,4.71a17.37,17.37,0,0,1,3.82,11.29A17.46,17.46,0,0,1,164.8,40.85Zm47.09,0a11.38,11.38,0,0,1-18.32,0,17.47,17.47,0,0,1-3.83-11.37,17.38,17.38,0,0,1,3.83-11.29q3.83-4.71,9.16-4.71t9.16,4.71a17.38,17.38,0,0,1,3.83,11.29A17.47,17.47,0,0,1,211.89,40.85Z"/><path class="cls-1" d="M299.39,35.9h-7.94v23h7.94c8.47,0,11-6.6,11-11.53S307.86,35.9,299.39,35.9Zm0,18.72h-3.48V40.14h3.48c5.64,0,6.46,5.35,6.46,7.22S305,54.62,299.39,54.62Z"/></g></g></svg>